<svg width="57" height="51" viewBox="0 0 57 51" fill="none" xmlns="http://www.w3.org/2000/svg">
<path d="M51.8466 4.67464C48.8408 1.90989 44.9432 0.40625 40.8253 0.40625C40.6618 0.40625 40.4984 0.40625 40.3278 0.40625C36.0359 0.541369 32.0459 2.28406 29.0898 5.3433L28.5 5.95307L27.9102 5.3433C24.9541 2.28753 20.9641 0.541369 16.6722 0.40625C16.5016 0.40625 16.3382 0.40625 16.1747 0.40625C12.0568 0.40625 8.15923 1.90989 5.15341 4.67464C2.01969 7.54679 0.228988 11.4375 0.101081 15.6332C-0.0268257 19.8184 1.52227 23.8096 4.48545 26.8723L28.5 50.9062L52.5323 26.855C55.4777 23.8062 57.0268 19.8149 56.8989 15.6297C56.771 11.441 54.9839 7.55025 51.8466 4.67464ZM2.73028 15.7094C2.83332 12.2032 4.33978 8.94649 6.95121 6.54899C9.47027 4.23463 12.7319 2.97352 16.1747 2.97352C16.3133 2.97352 16.4483 2.97352 16.5869 2.98045C20.1825 3.08092 23.5223 4.54991 25.9916 7.09639L40.0187 21.568C38.2529 22.6039 35.9506 22.403 34.3766 20.9652L27.061 14.2508C25.2703 16.0801 22.2503 16.2048 20.3637 14.476L15.0627 9.59783L13.2649 11.4687L18.5659 16.3469C19.9302 17.5976 21.6676 18.2074 23.4121 18.2524L11.6802 30.3958L6.38629 25.0985C3.92053 22.5485 2.62014 19.2086 2.73028 15.7094ZM27.2849 17.9856L29.875 20.3589L16.0042 34.7266L13.5171 32.239L27.2849 17.9856ZM31.7865 22.1154L32.5753 22.8395C33.1366 23.3592 33.801 23.7126 34.4761 24.0279L20.1398 38.8702L17.8375 36.5663L31.7865 22.1154ZM25.9952 44.7254L28.3117 42.3625L30.9373 44.7912L28.5 47.2303L25.9952 44.7254ZM38.928 36.8019L36.7678 38.9638L34.0817 36.4727L36.2171 34.29L38.928 36.8019ZM38.0362 32.433L40.1715 30.2538L42.9215 32.7968L40.7578 34.9622L38.0362 32.433ZM34.9273 40.8L32.7742 42.955L30.1308 40.5055L32.259 38.3298L34.9273 40.8ZM50.6315 25.0881L44.762 30.964L40.0898 26.6333L24.1618 42.8892L21.9838 40.7099L37.3931 24.7555C37.4677 24.7589 37.5317 24.7936 37.6063 24.7936C37.6738 24.7936 37.7342 24.7936 37.7946 24.7936C39.7487 24.7451 41.5643 23.9586 42.9073 22.5624L43.7565 21.6858L30.312 7.82396L31.0155 7.09639C33.4813 4.54991 36.8211 3.08092 40.4202 2.98045C44.0585 2.78989 47.4338 4.14109 50.0559 6.54552C52.6673 8.94302 54.1738 12.1997 54.2768 15.7059C54.3834 19.2086 53.0795 22.5485 50.6315 25.0881Z" fill="white"/>
</svg>
