<svg width="32" height="32" viewBox="0 0 32 32" fill="none" xmlns="http://www.w3.org/2000/svg">
<path d="M32 4.8L1.5 0L0 32H32V4.8Z" fill="#2E3192"/>
<path fill-rule="evenodd" clip-rule="evenodd" d="M26.5858 8.17579H18.9882V6.41309L6.5 8.31093V24.9463L18.9882 27.0642V24.4515H26.5858C26.8158 24.463 27.0412 24.3843 27.2125 24.2326C27.3839 24.0809 27.4872 23.8686 27.5 23.6421V8.98441C27.487 8.75804 27.3836 8.54594 27.2123 8.39442C27.041 8.24291 26.8157 8.16431 26.5858 8.17579ZM26.7057 23.7765H18.9628L18.95 22.3816H20.8153V20.757H18.9357L18.9268 19.797H20.8153V18.1723H18.9125L18.9035 17.2123H20.8153V15.5877H18.8975V14.6277H20.8153V13.0031H18.8975V12.0431H20.8153V10.4185H18.8975V8.94158H26.7057V23.7765Z" fill="#FBFDFF"/>
<path d="M21.8652 10.416H25.1075V12.0406H21.8652V10.416ZM21.8652 13.0014H25.1075V14.626H21.8652V13.0014ZM21.8652 15.5867H25.1075V17.2113H21.8652V15.5867ZM21.8652 18.1721H25.1075V19.7967H21.8652V18.1721ZM21.8652 20.7574H25.1075V22.382H21.8652V20.7574Z" fill="#FBFDFF"/>
<path fill-rule="evenodd" clip-rule="evenodd" d="M9.76007 12.8044L11.3696 12.7136L12.3813 15.4525L13.5768 12.6006L15.1863 12.5098L13.2318 16.3985L15.1863 20.2968L13.4846 20.1839L12.3356 17.2123L11.1858 20.0709L9.62207 19.935L11.4386 16.4916L9.76007 12.8044Z" fill="#2E3192"/>
</svg>