<svg width="15" height="20" viewBox="0 0 15 20" fill="none" xmlns="http://www.w3.org/2000/svg">
<path d="M6.55088 19.9297C6.45013 19.9309 6.35577 19.8347 6.2614 19.7385L1.64865 8.70193C0.863074 6.86269 1.20485 4.71881 2.4278 2.95403C3.65075 1.18925 5.52794 0.195188 7.54921 0.0749598C7.7507 0.0726713 8.05289 0.0692392 8.25438 0.0669507C10.2629 0.14141 12.0062 1.19162 13.006 2.83388C13.9995 4.57349 13.96 6.71394 13.0329 8.57263L6.96657 19.7305C6.85307 19.9264 6.75237 19.9275 6.55088 19.9297ZM7.81956 0.558247C7.71881 0.559392 7.61808 0.560536 7.51734 0.56168C5.69755 0.67962 3.9211 1.67258 2.91239 3.24039C1.80294 4.80933 1.56832 6.85473 2.2659 8.50042L6.70898 19.0525L12.5419 8.38371C13.4562 6.71971 13.4893 4.6766 12.5839 3.13054C11.6784 1.58448 10.1303 0.629274 8.32328 0.552526C8.02105 0.555959 7.9203 0.557103 7.81956 0.558247Z" fill="#2E3192"/>
<path d="M7.18874 9.30568C5.25825 9.32862 3.83134 7.87721 3.95447 6.01571C4.0776 4.1542 5.69891 2.66646 7.6294 2.64353C9.5599 2.62059 10.9867 4.07212 10.8636 5.93362C10.7405 7.79513 9.11924 9.28275 7.18874 9.30568ZM7.59052 3.23135C5.96484 3.25066 4.66134 4.53886 4.56414 6.00846C4.46045 7.57605 5.70355 8.73597 7.22762 8.71786C8.85331 8.69855 10.1568 7.41047 10.254 5.94086C10.4528 4.47005 9.21621 3.21203 7.59052 3.23135Z" fill="#2E3192"/>
</svg>
